<?xml version="1.0" encoding="UTF-8" standalone="no"?>
<!-- Created with Inkscape (http://www.inkscape.org/) -->

<svg
   xmlns:dc="http://purl.org/dc/elements/1.1/"
   xmlns:cc="http://creativecommons.org/ns#"
   xmlns:rdf="http://www.w3.org/1999/02/22-rdf-syntax-ns#"
   xmlns:svg="http://www.w3.org/2000/svg"
   xmlns="http://www.w3.org/2000/svg"
   xmlns:xlink="http://www.w3.org/1999/xlink"
   xmlns:sodipodi="http://sodipodi.sourceforge.net/DTD/sodipodi-0.dtd"
   xmlns:inkscape="http://www.inkscape.org/namespaces/inkscape"
   width="5cm"
   height="2cm"
   viewBox="0 0 177.16536 70.86614"
   id="svg2"
   version="1.1"
   inkscape:version="0.91 r13725"
   sodipodi:docname="iticom-logo.svg">
  <defs
     id="defs4">
    <linearGradient
       inkscape:collect="always"
       id="linearGradient4163">
      <stop
         style="stop-color:#0044aa;stop-opacity:1;"
         offset="0"
         id="stop4165" />
      <stop
         style="stop-color:#0044aa;stop-opacity:0;"
         offset="1"
         id="stop4167" />
    </linearGradient>
    <linearGradient
       inkscape:collect="always"
       xlink:href="#linearGradient4163"
       id="linearGradient4169"
       x1="88.899948"
       y1="1016.4336"
       x2="88.855659"
       y2="1033.4495"
       gradientUnits="userSpaceOnUse"
       gradientTransform="translate(-0.06313453,0.37880721)" />
  </defs>
  <sodipodi:namedview
     id="base"
     pagecolor="#ffffff"
     bordercolor="#666666"
     borderopacity="1.0"
     inkscape:pageopacity="0.0"
     inkscape:pageshadow="2"
     inkscape:zoom="1.979899"
     inkscape:cx="12.312064"
     inkscape:cy="43.995946"
     inkscape:document-units="px"
     inkscape:current-layer="layer1"
     showgrid="false"
     units="cm"
     inkscape:window-width="1366"
     inkscape:window-height="668"
     inkscape:window-x="0"
     inkscape:window-y="0"
     inkscape:window-maximized="1" />
  <metadata
     id="metadata7">
    <rdf:RDF>
      <cc:Work
         rdf:about="">
        <dc:format>image/svg+xml</dc:format>
        <dc:type
           rdf:resource="http://purl.org/dc/dcmitype/StillImage" />
        <dc:title></dc:title>
      </cc:Work>
    </rdf:RDF>
  </metadata>
  <g
     inkscape:label="Capa 1"
     inkscape:groupmode="layer"
     id="layer1"
     transform="translate(0,-981.49611)">
    <path
       style="font-style:normal;font-weight:normal;font-size:40px;line-height:125%;font-family:sans-serif;letter-spacing:0px;word-spacing:0px;fill:#0044aa;fill-opacity:1;stroke:none;stroke-width:1px;stroke-linecap:butt;stroke-linejoin:miter;stroke-opacity:1"
       d="m 13.306641,983.82663 0,8 8,0 0,-8 -8,0 z m 12.03125,0 0,8 9.96875,0 0.03125,23.99997 8,0 0,-23.99997 10,0 0,-8 -28,0 z m 32.03125,0 0,8 8,0 0,-8 -8,0 z m 20.03125,0 c -2.5,0 -4.380205,0.39583 -5.640625,1.1875 -1.0625,0.66666 -1.755215,1.65625 -2.078125,2.96875 -0.1875,0.75 -0.28125,2.03125 -0.28125,3.84375 l 20,0 0,4 7.999999,0 0,-4 c 0,-1.78125 -0.099,-3.0677 -0.29687,-3.85937 -0.33333,-1.32291 -1.02605,-2.3125 -2.07813,-2.96875 -1.249995,-0.78125 -3.124999,-1.17188 -5.624999,-1.17188 l -12,0 z m 32.031249,0 c -2.5,0 -4.3802,0.39583 -5.64062,1.1875 -1.0625,0.66666 -1.75522,1.65625 -2.07813,2.96875 -0.1875,0.75 -0.28125,2.03125 -0.28125,3.84375 l 20,0 0,15.99997 -12,0 0,-11.99997 -8,0 0,11.99997 c 0,1.7813 0.099,3.0677 0.29688,3.8594 0.33333,1.3229 1.02603,2.3125 2.07812,2.9688 1.25,0.7812 3.125,1.1718 5.625,1.1718 l 12,0 c 2.5,0 4.38021,-0.3958 5.64063,-1.1875 1.0625,-0.6666 1.7552,-1.6562 2.07812,-2.9687 0.1875,-0.75 0.28125,-2.0313 0.28125,-3.8438 l 0,-15.99997 c 0,-1.78125 -0.099,-3.0677 -0.29687,-3.85937 -0.33333,-1.32291 -1.02605,-2.3125 -2.07813,-2.96875 -1.25,-0.78125 -3.125,-1.17188 -5.625,-1.17188 l -12,0 z m 32.03125,0 c -2.5,0 -4.3802,0.39583 -5.64062,1.1875 -1.0625,0.66666 -1.75522,1.65625 -2.07813,2.96875 -0.1875,0.75 -0.28125,2.03125 -0.28125,3.84375 l 12,0 0,19.99997 8,0 0,-19.99997 4,0 0,23.99997 8,0 0,-23.99997 c 0,-1.89584 -0.099,-3.23959 -0.29687,-4.03125 -0.32292,-1.29167 -1.01563,-2.25 -2.07813,-2.875 -1.25,-0.72917 -3.125,-1.09375 -5.625,-1.09375 l -16,0 z m -128.156249,12 0,19.99997 8,0 0,-19.99997 -8,0 z m 44.0625,0 0,19.99997 8,0 0,-19.99997 -8,0 z m 12.03125,0 0,11.99997 c 0,1.7813 0.09896,3.0677 0.296875,3.8594 0.33333,1.3229 1.026035,2.3125 2.078125,2.9688 1.25,0.7812 3.125,1.1718 5.625,1.1718 l 12,0 c 2.5,0 4.380184,-0.3958 5.640629,-1.1875 1.0625,-0.6666 1.7552,-1.6562 2.07812,-2.9687 0.1875,-0.75 0.28125,-2.0313 0.28125,-3.8438 l 0,-4 -7.999999,0 0,4 -12,0 0,-11.99997 -8,0 z m 64.062499,0 0,19.99997 8,0 0,-19.99997 -8,0 z"
       id="text3336"
       inkscape:connector-curvature="0" />
    <path
       style="font-style:normal;font-weight:normal;font-size:40px;line-height:125%;font-family:sans-serif;letter-spacing:0px;word-spacing:0px;opacity:0.26000001;fill:url(#linearGradient4169);fill-opacity:1;stroke:none;stroke-width:1px;stroke-linecap:butt;stroke-linejoin:miter;stroke-opacity:1"
       d="m 13.338348,1048.3787 0,-8 8,0 0,8 -8,0 z m 12.03125,0 0,-8 9.96875,0 0.0312,-24 8,0 0,24 10,0 0,8 -28,0 z m 32.03125,0 0,-8 8,0 0,8 -8,0 z m 20.03125,0 c -2.5,0 -4.38021,-0.3958 -5.64063,-1.1875 -1.0625,-0.6667 -1.75521,-1.6562 -2.07812,-2.9687 -0.1875,-0.75 -0.28125,-2.0313 -0.28125,-3.8438 l 20,0 0,-4 8,0 0,4 c 0,1.7813 -0.099,3.0677 -0.29687,3.8594 -0.33333,1.3229 -1.02605,2.3125 -2.07813,2.9687 -1.25,0.7813 -3.125,1.1719 -5.625,1.1719 l -12,0 z m 32.031252,0 c -2.5,0 -4.3802,-0.3958 -5.64062,-1.1875 -1.0625,-0.6667 -1.75522,-1.6562 -2.07813,-2.9687 -0.1875,-0.75 -0.28125,-2.0313 -0.28125,-3.8438 l 20,0 0,-16 -12,0 0,12 -8,0 0,-12 c 0,-1.7813 0.099,-3.0677 0.29688,-3.8594 0.33333,-1.3229 1.02603,-2.3125 2.07812,-2.9688 1.25,-0.7812 3.125,-1.1718 5.625,-1.1718 l 12,0 c 2.5,0 4.38021,0.3958 5.64063,1.1875 1.0625,0.6666 1.7552,1.6562 2.07812,2.9687 0.1875,0.75 0.28125,2.0313 0.28125,3.8438 l 0,16 c 0,1.7813 -0.099,3.0677 -0.29687,3.8594 -0.33333,1.3229 -1.02605,2.3125 -2.07813,2.9687 -1.25,0.7813 -3.125,1.1719 -5.625,1.1719 l -12,0 z m 32.03125,0 c -2.5,0 -4.3802,-0.3958 -5.64062,-1.1875 -1.0625,-0.6667 -1.75522,-1.6562 -2.07813,-2.9687 -0.1875,-0.75 -0.28125,-2.0313 -0.28125,-3.8438 l 12,0 0,-20 8,0 0,20 4,0 0,-24 8,0 0,24 c 0,1.8958 -0.099,3.2396 -0.29687,4.0313 -0.32292,1.2916 -1.01563,2.25 -2.07813,2.875 -1.25,0.7291 -3.125,1.0937 -5.625,1.0937 l -16,0 z m -128.156252,-12 0,-20 8,0 0,20 -8,0 z m 44.0625,0 0,-20 8,0 0,20 -8,0 z m 12.03125,0 0,-12 c 0,-1.7813 0.099,-3.0677 0.29687,-3.8594 0.33333,-1.3229 1.02604,-2.3125 2.07813,-2.9688 1.25,-0.7812 3.125,-1.1718 5.625,-1.1718 l 12,0 c 2.5,0 4.38018,0.3958 5.64063,1.1875 1.0625,0.6666 1.7552,1.6562 2.07812,2.9687 0.1875,0.75 0.28125,2.0313 0.28125,3.8438 l 0,4 -8,0 0,-4 -12,0 0,12 -8,0 z m 64.062502,0 0,-20 8,0 0,20 -8,0 z"
       id="text3336-8"
       inkscape:connector-curvature="0" />
  </g>
</svg>
